# xmcd
# 
# Track frame offsets:
#     150
#     16129
#     32460
#     62532
#     77499
#     94108
#     112270
#     132918
#     146725
#     162574
# 
# Disc length: 2386
# 
# Revision: 0
# Processed by: cddbd v1.5.2PL0 Copyright (c) Steve Scherf et al.
# Submitted via: fre:ac v1.0.31
# 
DISCID=7e09500a
DTITLE=Rick Derringer - Guitars And Women
DYEAR=0
DGENRE=Rock/Pop
TTITLE0=Something Warm
TTITLE1=Guitars And Women
TTITLE2=Everything
TTITLE3=Man In The Middle
TTITLE4=It Must Be Love
TTITLE5=Desires Of The Heart
TTITLE6=Timeless
TTITLE7=Hopeless Romantic
TTITLE8=Need A Little Girl (Just Like You)
TTITLE9=Don't Ever Say Goodbye
EXTD=
EXTT0=
EXTT1=
EXTT2=
EXTT3=
EXTT4=
EXTT5=
EXTT6=
EXTT7=
EXTT8=
EXTT9=
PLAYORDER=
